<svg id="f0459335-ef7c-4294-94dc-5b0fd9baa49a" data-name="Layer 1" 
    xmlns="http://www.w3.org/2000/svg" viewBox="0 0 400 100">
    <title>tobiasfyi-logo</title>
    <path d="M64.35,25.33,61.18,34h9.6l-.36,1.24H60.83l-10,28c-.3.88-.59,1.79-.88,2.73a9.2,9.2,0,0,0-.44,2.81,3.22,3.22,0,0,0,.66,2.12,2.68,2.68,0,0,0,2.15.79,5.18,5.18,0,0,0,3-1,14.68,14.68,0,0,0,2.55-2.24,17.37,17.37,0,0,0,1.94-2.6,23.53,23.53,0,0,0,1.14-2.11l1.06.44c-.24.47-.62,1.19-1.15,2.15a15.22,15.22,0,0,1-2.11,2.91,12.18,12.18,0,0,1-3.3,2.51,9.92,9.92,0,0,1-4.71,1.05,6.88,6.88,0,0,1-5-1.63A5.24,5.24,0,0,1,44,67.22a14.4,14.4,0,0,1,.66-4c.44-1.49.9-2.86,1.37-4.09l8.62-23.93H46.75L47.1,34H55l3.17-8.62Z" fill="#83192b"/>
    <path d="M71,48a27.79,27.79,0,0,1,5.59-8,26.69,26.69,0,0,1,7.52-5.28,18.71,18.71,0,0,1,7.92-1.94,12.15,12.15,0,0,1,6,1.41,13.26,13.26,0,0,1,4.23,3.61,15.17,15.17,0,0,1,2.46,4.84,17.65,17.65,0,0,1,.79,5.1,21.79,21.79,0,0,1-2.2,9.64,30.08,30.08,0,0,1-5.54,8,26.35,26.35,0,0,1-7.44,5.41,17.86,17.86,0,0,1-7.78,2,12.74,12.74,0,0,1-5.68-1.23,13.92,13.92,0,0,1-4.31-3.26,14.19,14.19,0,0,1-2.77-4.7,16.54,16.54,0,0,1-1-5.68A22.69,22.69,0,0,1,71,48ZM76.8,69.46a7.44,7.44,0,0,0,5.5,2.16A9,9,0,0,0,87.41,70a17.52,17.52,0,0,0,4.31-4.18,33.84,33.84,0,0,0,3.43-5.76,51.5,51.5,0,0,0,2.51-6.34,50.31,50.31,0,0,0,1.54-6,26.19,26.19,0,0,0,.53-4.58,11.1,11.1,0,0,0-1.81-6.68Q96.12,34,91.63,34a8.7,8.7,0,0,0-4.84,1.5,17.44,17.44,0,0,0-4.18,3.91A31.19,31.19,0,0,0,79.22,45a46.43,46.43,0,0,0-2.51,6.3,50.61,50.61,0,0,0-1.54,6.24,31.77,31.77,0,0,0-.52,5.33C74.65,65.81,75.36,68,76.8,69.46Z" fill="#83192b"/>
    <path d="M125.07,43.11l.18.08a33.67,33.67,0,0,1,2.59-3.52,24.87,24.87,0,0,1,3.39-3.34,19.5,19.5,0,0,1,4-2.51,10.63,10.63,0,0,1,4.54-1,10.85,10.85,0,0,1,4.79,1A11,11,0,0,1,148,36.46a11.12,11.12,0,0,1,2.11,3.74,13.83,13.83,0,0,1,.7,4.4,19.59,19.59,0,0,1-1.32,7A29.56,29.56,0,0,1,146,58.2,39.34,39.34,0,0,1,141,64a37.63,37.63,0,0,1-5.9,4.62,31.81,31.81,0,0,1-6.11,3,16.85,16.85,0,0,1-5.68,1.1,11.56,11.56,0,0,1-3.48-.57,9.86,9.86,0,0,1-3.3-1.8,9.71,9.71,0,0,1-2.46-3.17,10.5,10.5,0,0,1-1-4.75,17.58,17.58,0,0,1,.57-4.1A31.11,31.11,0,0,1,115,54.28L132.11,6.06h-7.74l.35-1.23H138.8Zm-1.58,28.51A10.37,10.37,0,0,0,128.81,70a22.17,22.17,0,0,0,5.1-4.22,41.68,41.68,0,0,0,4.54-6,51.93,51.93,0,0,0,3.65-6.91,47.77,47.77,0,0,0,2.42-7,26.25,26.25,0,0,0,.88-6.29,5.24,5.24,0,0,0-1.59-4.14A6.23,6.23,0,0,0,139.5,34a9.72,9.72,0,0,0-5,1.54,23.59,23.59,0,0,0-4.93,4.05,38.57,38.57,0,0,0-4.49,5.81,48.18,48.18,0,0,0-3.65,6.82,48.71,48.71,0,0,0-2.47,7,25.58,25.58,0,0,0-.92,6.47Q118,71.62,123.49,71.62Z" fill="#83192b"/>
    <path d="M160.88,35.19l.36-1.24h14L164.84,63.79,164,66.47a8.57,8.57,0,0,0-.43,2.6,2.74,2.74,0,0,0,.61,1.8,2.26,2.26,0,0,0,1.85.75,4.71,4.71,0,0,0,2.77-1,15.19,15.19,0,0,0,2.51-2.24,17.37,17.37,0,0,0,1.94-2.6,23.53,23.53,0,0,0,1.14-2.11l1.06.44-1.11,2.15a13.34,13.34,0,0,1-2.06,2.91A12.44,12.44,0,0,1,169,71.71a9.43,9.43,0,0,1-4.57,1.05,7.91,7.91,0,0,1-4.62-1.19,4.5,4.5,0,0,1-1.72-4,11.89,11.89,0,0,1,.53-3.3q.53-1.8,1.05-3.3l9.07-25.78Zm14.48-24.95a4.14,4.14,0,0,1,7.09,2.95,4.14,4.14,0,1,1-8.28,0A4,4,0,0,1,175.36,10.24Z" fill="#83192b"/>
    <path d="M211.88,65a14.71,14.71,0,0,0-.57,3.78c0,1.53.73,2.29,2.2,2.29a5.34,5.34,0,0,0,3.17-1,12.3,12.3,0,0,0,2.42-2.29,16.12,16.12,0,0,0,1.67-2.55c.44-.85.75-1.45.92-1.81l1.15.62q-.45,1-1.32,2.46a13.63,13.63,0,0,1-2.29,2.86A14.71,14.71,0,0,1,216,71.75a8.88,8.88,0,0,1-4.31,1q-5.81,0-5.81-5.28a14.56,14.56,0,0,1,.27-2.15,16.58,16.58,0,0,1,.7-2.78h-.17q-1.25,1.5-2.82,3.3a25.9,25.9,0,0,1-3.57,3.35,19.41,19.41,0,0,1-4.35,2.55,13.4,13.4,0,0,1-5.28,1,9.82,9.82,0,0,1-3.56-.66,8.31,8.31,0,0,1-3-2A9.48,9.48,0,0,1,182,66.6a15,15,0,0,1-.75-5,18.77,18.77,0,0,1,1.41-7,33.94,33.94,0,0,1,3.65-6.74,37.34,37.34,0,0,1,5.19-5.94,49,49,0,0,1,6-4.75,31.58,31.58,0,0,1,6-3.17,14.79,14.79,0,0,1,5.24-1.14,6.91,6.91,0,0,1,4.49,1.5,4.82,4.82,0,0,1,1.84,4h.18l1.5-4.32h6.16l-9.59,26.67C212.72,62.14,212.26,63.61,211.88,65Zm2-23.54a8.59,8.59,0,0,0,.3-2.07,7.31,7.31,0,0,0-.22-1.72A4.75,4.75,0,0,0,213.2,36,4.66,4.66,0,0,0,209.11,34a11,11,0,0,0-5.68,1.63,22.59,22.59,0,0,0-5.19,4.27,37,37,0,0,0-4.44,6,53.29,53.29,0,0,0-3.48,6.86,45.34,45.34,0,0,0-2.24,6.73,24.5,24.5,0,0,0-.79,5.72,8.58,8.58,0,0,0,1.09,4.58A4,4,0,0,0,192,71.62,10,10,0,0,0,197.23,70a24.77,24.77,0,0,0,4.84-3.78,35.22,35.22,0,0,0,3.78-4.4,15.94,15.94,0,0,0,2-3.43l4.66-12.94C213.25,43.6,213.7,42.27,213.91,41.48Z" fill="#83192b"/>
    <path d="M235.29,48.69a7.33,7.33,0,0,1-1.1-4.09,9.09,9.09,0,0,1,1.06-4.13,13.24,13.24,0,0,1,2.9-3.83,14.23,14.23,0,0,1,4.44-2.77,14.6,14.6,0,0,1,5.59-1.06,9.88,9.88,0,0,1,5.94,1.63,4.94,4.94,0,0,1,2.24,4.18q0,3.69-3.6,3.69a3.45,3.45,0,0,1-2.16-.7,2.37,2.37,0,0,1-.92-2,2.47,2.47,0,0,1,.57-1.81,2,2,0,0,0,.57-1.45c0-1.53-1-2.29-3-2.29a9.78,9.78,0,0,0-3.65.62,7.25,7.25,0,0,0-2.56,1.67,6.77,6.77,0,0,0-1.49,2.38,7.7,7.7,0,0,0-.49,2.64,6.63,6.63,0,0,0,.88,3.3A37.59,37.59,0,0,0,243,48.3l5.19,6.77a7.66,7.66,0,0,1,1.45,2.78,10.86,10.86,0,0,1,.4,2.94,9.21,9.21,0,0,1-1.5,5.24,13.32,13.32,0,0,1-3.74,3.74A16.93,16.93,0,0,1,240,72a17.63,17.63,0,0,1-4.88.75,16.81,16.81,0,0,1-3.87-.44,12.19,12.19,0,0,1-3.3-1.27,7,7,0,0,1-2.34-2.12,5.1,5.1,0,0,1-.88-2.94A3.65,3.65,0,0,1,226,63a5,5,0,0,1,3.21-1,2.16,2.16,0,0,1,1.45.57,1.75,1.75,0,0,1,.66,1.36,4.42,4.42,0,0,1-.44,2,4.62,4.62,0,0,0-.44,2,3.18,3.18,0,0,0,1.37,3,6.72,6.72,0,0,0,3.56.84,10.26,10.26,0,0,0,3.92-.71,9.76,9.76,0,0,0,2.9-1.76A7.28,7.28,0,0,0,244,66.78a5.85,5.85,0,0,0,.61-2.47,8.32,8.32,0,0,0-.57-3.16A14.5,14.5,0,0,0,242.11,58l-4.4-5.81C236.83,51,236,49.84,235.29,48.69Z" fill="#83192b"/>
    <path d="M262,70.47h6.77V35.19H262V34h6.77V29.29a38.9,38.9,0,0,1,.31-5.32,23.59,23.59,0,0,1,.84-4,15.85,15.85,0,0,1,1.23-3,14.88,14.88,0,0,1,1.58-2.33,22.48,22.48,0,0,1,5.72-5.06A14.15,14.15,0,0,1,290.73,8.3a11,11,0,0,1,3.39,2.07,7.93,7.93,0,0,1,1.93,2.68,6.82,6.82,0,0,1,.62,2.6,5.38,5.38,0,0,1-1,3.08,3.67,3.67,0,0,1-3.26,1.41,7.75,7.75,0,0,1-2.59-.53,2.17,2.17,0,0,1-1.45-2.29,4.53,4.53,0,0,1,.83-2.68,4.54,4.54,0,0,0,.84-2.69,2.53,2.53,0,0,0-1.59-2.59,8.36,8.36,0,0,0-3.25-.66A7.89,7.89,0,0,0,279,11.87q-2.64,3.17-2.64,9.85V34h10.91v1.24H276.34V70.47h8v1.24H262Z" fill="#83192b"/>
    <path d="M288.39,34H310v1.24h-7.4l11.36,27.63,11.87-27.63h-7.3V34H332v1.24H327.2l-14.52,34c-1.11,2.53-2.17,5.06-3.17,7.62s-2,5.11-3,7.7A56.78,56.78,0,0,1,304.06,90a18.19,18.19,0,0,1-2.6,3.87,9.47,9.47,0,0,1-2.95,2.25,8.65,8.65,0,0,1-3.69.74,8.94,8.94,0,0,1-4.09-.79,7.48,7.48,0,0,1-2.42-1.85,5.26,5.26,0,0,1-1.15-2.2,9.12,9.12,0,0,1-.26-1.93,4.19,4.19,0,0,1,1.23-3.3,4.3,4.3,0,0,1,3-1.1,7,7,0,0,1,1.32.13,4.35,4.35,0,0,1,1.32.48,3.48,3.48,0,0,1,1.06,1,2.53,2.53,0,0,1,.44,1.5,4.06,4.06,0,0,1-.75,2.33,4.2,4.2,0,0,0-.75,2.42,1.6,1.6,0,0,0,.62,1.5,3.43,3.43,0,0,0,1.67.35,5.29,5.29,0,0,0,2.6-.66A7.83,7.83,0,0,0,301,92.56a22.72,22.72,0,0,0,2.29-3.91q1.14-2.43,2.55-5.94l3.87-9.86L294.47,35.19h-6.08Z" fill="#83192b"/>
    <path d="M333.62,70.47h6.78V35.19h-6.78V34H348V70.47h6.78v1.24H333.62Zm5.72-57a4.67,4.67,0,1,1,9.33,0,4.67,4.67,0,0,1-9.33,0Z" fill="#83192b"/>
</svg>