<svg xmlns="http://www.w3.org/2000/svg" viewBox="0 0 800 240">
    <title>tobias_fyi</title>
    <path d="M87.1,70.87l-7.34,20H102l-.82,2.85H78.95L55.7,158.55q-1,3.06-2,6.32a21.72,21.72,0,0,0-1,6.53,7.4,7.4,0,0,0,1.53,4.89q1.53,1.84,5,1.84a12,12,0,0,0,6.93-2.24,33.13,33.13,0,0,0,5.91-5.2,39.52,39.52,0,0,0,4.49-6,48.8,48.8,0,0,0,2.65-4.89l2.45,1q-.82,1.63-2.65,5a35,35,0,0,1-4.89,6.73,28,28,0,0,1-7.65,5.81,22.88,22.88,0,0,1-10.91,2.45q-7.75,0-11.62-3.77A12.2,12.2,0,0,1,40,167.93a33.32,33.32,0,0,1,1.53-9.28q1.53-5.2,3.16-9.48l20-55.46H46.32l.82-2.85H65.49l7.34-20Z" fill="#a55148"/>
    <path d="M102.6,123.37a64.74,64.74,0,0,1,12.95-18.45A62.3,62.3,0,0,1,133,92.68a43.3,43.3,0,0,1,18.35-4.49,28.29,28.29,0,0,1,13.87,3.26A30.86,30.86,0,0,1,175,99.82,35.08,35.08,0,0,1,180.7,111a41.11,41.11,0,0,1,1.83,11.83,50.5,50.5,0,0,1-5.1,22.33,70.07,70.07,0,0,1-12.85,18.45,61.2,61.2,0,0,1-17.23,12.54,41.48,41.48,0,0,1-18,4.59,29.45,29.45,0,0,1-13.15-2.85,32.25,32.25,0,0,1-10-7.54,33,33,0,0,1-6.42-10.91,38.4,38.4,0,0,1-2.24-13.15A52.66,52.66,0,0,1,102.6,123.37ZM116,173.13a17.25,17.25,0,0,0,12.74,5,20.93,20.93,0,0,0,11.83-3.67,40.7,40.7,0,0,0,10-9.69,78.1,78.1,0,0,0,8-13.36,120,120,0,0,0,5.81-14.68,116.27,116.27,0,0,0,3.57-13.87,60.14,60.14,0,0,0,1.22-10.6q0-9.79-4.18-15.5t-14.58-5.71a20.16,20.16,0,0,0-11.22,3.47,40.47,40.47,0,0,0-9.69,9.07,70.86,70.86,0,0,0-7.85,12.74,106.43,106.43,0,0,0-5.81,14.58,112.11,112.11,0,0,0-3.57,14.48A73.17,73.17,0,0,0,111,157.73Q111,168.13,116,173.13Z" fill="#a55148"/>
    <path d="M227.8,112.06l.41.2a77.7,77.7,0,0,1,6-8.16,56.35,56.35,0,0,1,7.85-7.75,45.29,45.29,0,0,1,9.28-5.81,24.45,24.45,0,0,1,10.5-2.34A24.51,24.51,0,0,1,281,96.66a25.45,25.45,0,0,1,4.89,8.67,32.06,32.06,0,0,1,1.63,10.2,45.35,45.35,0,0,1-3.06,16.21A69.06,69.06,0,0,1,276.33,147a90.79,90.79,0,0,1-11.62,13.46A86.58,86.58,0,0,1,251,171.19a74.16,74.16,0,0,1-14.17,7,38.77,38.77,0,0,1-13.15,2.55,26.62,26.62,0,0,1-8.05-1.33,22.74,22.74,0,0,1-7.65-4.18,22.15,22.15,0,0,1-5.71-7.34,24.41,24.41,0,0,1-2.24-11,40.38,40.38,0,0,1,1.33-9.48,71.43,71.43,0,0,1,3-9.48L244.11,26.21H226.17l.82-2.85h32.63Zm-3.67,66.07a24.14,24.14,0,0,0,12.34-3.67,52.09,52.09,0,0,0,11.83-9.79,97.45,97.45,0,0,0,10.5-13.87,116.51,116.51,0,0,0,8.46-16,108.24,108.24,0,0,0,5.61-16.31,60,60,0,0,0,2-14.58q0-6.32-3.67-9.58t-10-3.26a22.43,22.43,0,0,0-11.62,3.57A55,55,0,0,0,238.2,104a90.16,90.16,0,0,0-10.4,13.46,114.12,114.12,0,0,0-8.46,15.8,112.57,112.57,0,0,0-5.71,16.21,58.59,58.59,0,0,0-2.14,15Q211.49,178.13,224.13,178.12Z" fill="#a55148"/>
    <path d="M310.79,93.7l.82-2.85H344L320,160q-1,3.06-2,6.22a19.55,19.55,0,0,0-1,6,6.35,6.35,0,0,0,1.43,4.18,5.22,5.22,0,0,0,4.28,1.73,11,11,0,0,0,6.42-2.24,35,35,0,0,0,5.81-5.2,39.52,39.52,0,0,0,4.49-6,48.8,48.8,0,0,0,2.65-4.89l2.45,1q-.82,1.63-2.55,5a31.71,31.71,0,0,1-4.79,6.73,28.59,28.59,0,0,1-7.54,5.81,21.82,21.82,0,0,1-10.6,2.45q-6.73,0-10.71-2.75t-4-9.28a27.43,27.43,0,0,1,1.22-7.65q1.22-4.18,2.45-7.65l21-59.75Zm33.54-57.81a9.58,9.58,0,0,1,16.42,6.83,9.58,9.58,0,1,1-19.17,0A9.28,9.28,0,0,1,344.33,35.89Z" fill="#a55148"/>
    <path d="M429,162.83a33.84,33.84,0,0,0-1.33,8.77q0,5.31,5.1,5.3a12.27,12.27,0,0,0,7.34-2.34,27.83,27.83,0,0,0,5.61-5.3,36.63,36.63,0,0,0,3.87-5.91q1.53-3,2.14-4.18l2.65,1.43a64.7,64.7,0,0,1-3.06,5.71,31.57,31.57,0,0,1-5.3,6.63,34.66,34.66,0,0,1-7.54,5.51,20.51,20.51,0,0,1-10,2.34q-13.46,0-13.46-12.23a34.93,34.93,0,0,1,.61-5,38.48,38.48,0,0,1,1.63-6.42h-.41q-2.86,3.47-6.52,7.65a59.61,59.61,0,0,1-8.26,7.75,45.1,45.1,0,0,1-10.09,5.91,31,31,0,0,1-12.23,2.34,22.81,22.81,0,0,1-8.26-1.53,19.36,19.36,0,0,1-7-4.69,21.87,21.87,0,0,1-4.79-8.05,34.87,34.87,0,0,1-1.73-11.62,43.63,43.63,0,0,1,3.26-16.31,77.35,77.35,0,0,1,8.46-15.6,85.2,85.2,0,0,1,12-13.76,112,112,0,0,1,13.87-11,72.28,72.28,0,0,1,13.87-7.34,34.15,34.15,0,0,1,12.13-2.65,16,16,0,0,1,10.4,3.47,11.22,11.22,0,0,1,4.28,9.18h.41l3.47-10h14.27l-22.23,61.78Q430.28,157.94,429,162.83Zm4.69-54.55a19.48,19.48,0,0,0,.71-4.79,17.37,17.37,0,0,0-.51-4,11.19,11.19,0,0,0-1.83-4,10.85,10.85,0,0,0-9.48-4.49,25.68,25.68,0,0,0-13.15,3.77,52.35,52.35,0,0,0-12,9.89,85.29,85.29,0,0,0-10.3,14A124.71,124.71,0,0,0,379,134.59a105,105,0,0,0-5.2,15.6A57,57,0,0,0,372,163.44q0,6.53,2.55,10.6t8.46,4.08a23.3,23.3,0,0,0,12-3.67,58,58,0,0,0,11.22-8.77,83.39,83.39,0,0,0,8.77-10.2,36.2,36.2,0,0,0,4.69-8l10.81-30Q432.93,111,433.65,108.28Z" fill="#a55148"/>
    <path d="M483.2,125a17.16,17.16,0,0,1-2.55-9.48,21.36,21.36,0,0,1,2.45-9.58,31,31,0,0,1,6.73-8.87,33.48,33.48,0,0,1,10.3-6.42,34,34,0,0,1,12.95-2.45q8.56,0,13.76,3.77a11.5,11.5,0,0,1,5.2,9.69q0,8.56-8.36,8.56a8,8,0,0,1-5-1.63,5.54,5.54,0,0,1-2.14-4.69,5.71,5.71,0,0,1,1.33-4.18,4.56,4.56,0,0,0,1.33-3.36q0-5.3-6.93-5.3a22.77,22.77,0,0,0-8.46,1.43,16.54,16.54,0,0,0-5.91,3.87,15.68,15.68,0,0,0-3.47,5.51,17.65,17.65,0,0,0-1.12,6.12,15.15,15.15,0,0,0,2,7.65,84.35,84.35,0,0,0,5.71,8.46l12,15.7a17.73,17.73,0,0,1,3.37,6.42,25.87,25.87,0,0,1,.92,6.83,21.36,21.36,0,0,1-3.47,12.13,31,31,0,0,1-8.67,8.67A40,40,0,0,1,494,179a41,41,0,0,1-11.32,1.73,38.66,38.66,0,0,1-9-1,28.44,28.44,0,0,1-7.65-3,16.35,16.35,0,0,1-5.4-4.89,11.75,11.75,0,0,1-2-6.83q0-4.69,3-7a11.62,11.62,0,0,1,7.44-2.34,5,5,0,0,1,3.36,1.33,4.05,4.05,0,0,1,1.53,3.16,10.54,10.54,0,0,1-1,4.59,10.51,10.51,0,0,0-1,4.59q0,4.89,3.16,6.83a15.61,15.61,0,0,0,8.26,1.94,23.71,23.71,0,0,0,9.07-1.63,23.35,23.35,0,0,0,6.73-4.08,16.94,16.94,0,0,0,4.18-5.51,13.62,13.62,0,0,0,1.43-5.71,19.39,19.39,0,0,0-1.33-7.34,34.24,34.24,0,0,0-4.38-7.34l-10.2-13.46Q485.74,129,483.2,125Z" fill="#a55148"/>
    <path d="M545.08,175.47h15.7V93.7h-15.7V90.85h15.7V80a91.71,91.71,0,0,1,.71-12.34,58.21,58.21,0,0,1,1.94-9.18,36.63,36.63,0,0,1,2.85-6.93,34.23,34.23,0,0,1,3.67-5.4,51.61,51.61,0,0,1,13.25-11.72,31.29,31.29,0,0,1,16.93-5,30.75,30.75,0,0,1,11.52,1.94,25.31,25.31,0,0,1,7.85,4.79A18.33,18.33,0,0,1,624,42.42a15.7,15.7,0,0,1,1.43,6,12.34,12.34,0,0,1-2.24,7.14q-2.24,3.26-7.54,3.26a17.86,17.86,0,0,1-6-1.22q-3.36-1.22-3.36-5.3a10.53,10.53,0,0,1,1.94-6.22,10.55,10.55,0,0,0,1.94-6.22q0-4.48-3.67-6a19.46,19.46,0,0,0-7.55-1.53q-8.36,0-14.48,7.34T578.32,62.5V90.85H603.6V93.7H578.32v81.77h18.56v2.85H545.08Z" fill="#a55148"/>
    <path d="M606.25,90.85h50V93.7H639.08l26.3,64,27.53-64H676V90.85h31.2V93.7h-11l-33.65,78.71q-3.88,8.77-7.34,17.64t-6.93,17.84a133.3,133.3,0,0,1-5.71,12.85,42.1,42.1,0,0,1-6,9,22.06,22.06,0,0,1-6.83,5.2,19.89,19.89,0,0,1-8.56,1.73,20.81,20.81,0,0,1-9.48-1.83,17.68,17.68,0,0,1-5.61-4.28,12.32,12.32,0,0,1-2.65-5.1,20.56,20.56,0,0,1-.61-4.49q0-5.1,2.85-7.65a10,10,0,0,1,6.93-2.55,16.69,16.69,0,0,1,3.06.31,9.73,9.73,0,0,1,3.06,1.12,7.68,7.68,0,0,1,2.45,2.24,5.8,5.8,0,0,1,1,3.47,9.46,9.46,0,0,1-1.73,5.4,9.76,9.76,0,0,0-1.73,5.61q0,2.65,1.43,3.47a7.83,7.83,0,0,0,3.87.82,12.19,12.19,0,0,0,6-1.53,18.25,18.25,0,0,0,5.4-5,51.25,51.25,0,0,0,5.3-9.07q2.65-5.61,5.91-13.76l9-22.84L620.32,93.7H606.25Z" fill="#a55148"/>
    <path d="M711.06,175.47h15.7V93.7h-15.7V90.85H744.3v84.62H760v2.85H711.06ZM724.32,43.34A10.81,10.81,0,1,1,742.77,51a10.81,10.81,0,0,1-18.45-7.65Z" fill="#a55148"/>
</svg>