<svg xmlns="http://www.w3.org/2000/svg" viewBox="0 0 500 800"><title>outline</title><g id="b8fb74f5-7309-4ade-9aa2-db96786f1016" data-name="2"><path d="M275.15,251.25,277.32.37,233.67,0q-24,129.36-76.57,200.89T.34,300.33L0,339.4l145.5,1.24-2,232.39-.6,83.81-1.24,142.9c12.46-75.43,73.48-156.84,130.26-171.14l.15-20.48,2.3-266.39,224.86,1.91.78-90.48Zm204.24,72.22-224.85-1.91L252.06,608,252,614.2c-26.94,11.1-54.09,33.67-77.79,65q-6.1,8.07-11.67,16.61l.34-38.75.59-83.85,2.19-252.36-145.5-1.24,0-4.15C86.68,295,138.1,260.5,173.21,212.73c34.37-46.77,60.21-111.5,76.9-192.59l7,.06L255,271.08,479.83,273Z"/></g></svg>