<svg xmlns="http://www.w3.org/2000/svg" viewBox="0 0 500 800"><title>outline</title><g id="bd568e8c-91c0-4c88-887f-72545148e3b9" data-name="3"><path d="M500,341.14V250.71l-225.2,0V0H231.1q-22.95,129.48-75,201.41T0,302.13v39.05H145.72V573.42l.12,83.76V800c11.82-75.49,72.23-157.37,129-172.14l0-20.48,0-266.22Zm-245.23-20,0,286.21v6.25c-26.89,11.33-53.89,34.11-77.36,65.59-4,5.41-7.88,11-11.53,16.69V657.18l-.12-83.79V321.18H20v-4.14c66.39-21,117.6-55.9,152.35-103.94,34-47,59.34-111.94,75.35-193.12h7.05l0,250.73,225.21,0v50.45Z" fill="#192b82"/></g></svg>