<svg xmlns="http://www.w3.org/2000/svg" viewBox="0 0 800 800"><title>outline-sp</title><g id="ad59fc3a-e85b-4882-ad39-8a8366fe21a0" data-name="2"><path d="M420.52,279.07,422.29,74.3,386.67,74q-19.6,105.58-62.5,164T196.23,319.12L196,351l118.75,1L313.06,541.7l-.48,68.41-1,116.63c10.17-61.57,60-128,106.31-139.68l.12-16.72,1.88-217.42,183.53,1.56.64-73.85ZM587.23,338,403.7,336.46l-2,233.74,0,5.1c-22,9.06-44.15,27.48-63.49,53-3.33,4.38-6.5,8.91-9.52,13.55l.27-31.63.49-68.43,1.78-206-118.75-1,0-3.38c54.25-16.67,96.22-44.83,124.88-83.82,28.05-38.17,49.14-91,62.76-157.19l5.74,0-1.77,204.76,183.52,1.56Z"/></g><g id="b2291992-d531-4540-ad74-da7b4817266f" data-name="4"><path d="M388.34,796.52a412.91,412.91,0,0,0,70.73-7.94A393.83,393.83,0,0,0,527,768.34a389.72,389.72,0,0,0,119-74.65,393.74,393.74,0,0,0,84.79-110.91,382.63,382.63,0,0,0,39.92-132.87l1-8.64c.31-2.88.43-5.78.65-8.67.37-5.78,1-11.55,1-17.35l.25-8.69c.07-2.9.25-5.8.12-8.69-.13-5.8-.17-11.59-.37-17.39l-1.26-17.34c-.62-5.76-1.42-11.5-2.13-17.25-.3-2.89-.92-5.72-1.4-8.58l-1.53-8.56-.77-4.27-1-4.24-2-8.47A377.53,377.53,0,0,0,481.84,32.86a381.47,381.47,0,0,0-68.79-9.43A369.51,369.51,0,0,0,213,71.6,368.78,368.78,0,0,0,27.36,420.51,362.24,362.24,0,0,0,333.27,751.28a366.58,366.58,0,0,0,69.27,3.86A354.47,354.47,0,0,0,739,458a358.52,358.52,0,0,0,4.4-69.19,347.3,347.3,0,0,0-368-335.34A338.45,338.45,0,0,0,242.44,89.39a343.19,343.19,0,0,0-107.85,85.7,330.74,330.74,0,0,0-38.75,57.36l-3.91,7.74-2,3.87c-.32.64-.66,1.28-1,1.94l-.87,2-3.52,7.91c-1.18,2.64-2.41,5.25-3.4,8-4.34,10.7-8.32,21.54-11.74,32.58a340.37,340.37,0,0,0-13.86,67.94c-.51,5.77-1.19,11.54-1.3,17.35s-.6,11.61-.44,17.41l0,8.72c.1,2.9.28,5.8.42,8.7l.22,4.35c.06,1.46.13,2.91.29,4.35l.82,8.69.41,4.34.6,4.32,1.2,8.64c.17,1.45.46,2.88.72,4.31l.79,4.29c.55,2.86,1,5.74,1.63,8.58L63,477l1,4.26c.36,1.41.76,2.81,1.15,4.22l2.32,8.43c.36,1.41.83,2.8,1.28,4.18l1.34,4.16c.93,2.77,1.74,5.58,2.75,8.32l3,8.2,1.53,4.11,1.7,4,3.4,8.08c1.16,2.68,2.47,5.3,3.69,7.95l1.87,4,.94,2,1,1.94,4.08,7.78c.69,1.28,1.32,2.61,2.07,3.87l2.2,3.8a335,335,0,0,0,41,57.06l5.91,6.55c2,2.15,4.11,4.21,6.15,6.32l3.1,3.15c.52.52,1,1.06,1.55,1.57l1.61,1.51,6.45,6c2.11,2,4.38,3.93,6.61,5.86l6.71,5.76,6.94,5.48,3.47,2.74c1.16.92,2.38,1.75,3.56,2.63l7.16,5.21c1.18.89,2.42,1.7,3.65,2.51l3.69,2.45,3.69,2.45c1.23.82,2.44,1.66,3.72,2.4l7.59,4.59c1.27.76,2.52,1.55,3.8,2.29l3.89,2.13,7.78,4.27c2.63,1.37,5.3,2.64,8,4s5.27,2.7,8,3.84a354.58,354.58,0,0,0,67.34,22.86,347.81,347.81,0,0,1-68.5-20.22c-2.8-1-5.48-2.37-8.22-3.56s-5.47-2.41-8.18-3.69l-8-4-4-2c-1.33-.69-2.62-1.44-3.94-2.15L211,689.9c-1.32-.71-2.58-1.51-3.86-2.29l-3.84-2.34-3.84-2.34c-1.28-.77-2.56-1.55-3.8-2.4l-7.47-5c-1.24-.84-2.51-1.64-3.72-2.53l-3.63-2.66L173.55,665l-7-5.62c-2.34-1.89-4.73-3.72-7-5.74l-6.79-5.92-1.7-1.48c-.56-.51-1.09-1-1.64-1.55l-3.28-3.1c-2.16-2.08-4.39-4.11-6.51-6.24l-6.29-6.48a345,345,0,0,1-44.22-57.13l-2.41-3.84c-.82-1.27-1.51-2.61-2.28-3.91L80,556.11l-1.12-2-1-2-2.08-4c-1.36-2.7-2.81-5.36-4.11-8.09l-3.8-8.25-1.9-4.13-1.73-4.2L60.73,515c-1.14-2.81-2.09-5.69-3.14-8.54l-1.54-4.28c-.52-1.42-1-2.85-1.47-4.3l-2.71-8.69c-.45-1.45-.92-2.9-1.34-4.35l-1.17-4.41L47,471.63c-.75-2.95-1.32-5.93-2-8.89l-1-4.46c-.32-1.48-.66-3-.89-4.47l-1.56-9-.77-4.5-.58-4.53-1.15-9.05c-.22-1.51-.35-3-.46-4.54l-.38-4.55c-.23-3-.52-6.07-.71-9.11l-.35-9.12c-.35-6.09-.13-12.18-.1-18.27s.44-12.18.79-18.27a359.65,359.65,0,0,1,12.41-72.13,313.16,313.16,0,0,1,12-34.7c1.07-2.87,2.39-5.64,3.66-8.42l3.83-8.35,1-2.08c.33-.69.7-1.37,1-2.05l2.12-4.07,4.23-8.15c.68-1.37,1.47-2.68,2.23-4l2.3-4,4.59-8c3.25-5.18,6.58-10.32,9.89-15.46,3.56-5,7-10,10.68-14.92l5.67-7.22,2.84-3.61,1.42-1.8,1.5-1.73A362.9,362.9,0,0,1,233.4,71.55a358.29,358.29,0,0,1,140.77-38A367.57,367.57,0,0,1,729.76,246.32a366.21,366.21,0,0,1,33.58,141.84,378.61,378.61,0,0,1-4.65,73.06,373.08,373.08,0,0,1-95.56,194.67A374.11,374.11,0,0,1,403.31,775.12a386.72,386.72,0,0,1-73.07-4.07,381.48,381.48,0,0,1-196.11-92.64A381.31,381.31,0,0,1,7.41,422,390,390,0,0,1,340.88,7a385.53,385.53,0,0,1,73-3.53,402.12,402.12,0,0,1,72.44,9.92A398,398,0,0,1,782.85,307.08a405.19,405.19,0,0,1,10.7,72.34,376.32,376.32,0,0,1-2.77,73,398.29,398.29,0,0,1-46,137.75A403.74,403.74,0,0,1,594.39,743.63a389,389,0,0,1-65.32,30.17A399.45,399.45,0,0,1,388.34,796.52Z"/></g></svg>