<svg xmlns="http://www.w3.org/2000/svg" viewBox="0 0 400 400">
    <title>19-06-01-vibrary-logo</title>
    <path d="M200,20A180,180,0,1,1,20,200,180,180,0,0,1,200,20m0-9.5a190.85,190.85,0,0,0-38.18,3.85A188.52,188.52,0,0,0,94,42.87,190,190,0,0,0,25.4,126.24a188.61,188.61,0,0,0-11,35.58,191.26,191.26,0,0,0,0,76.36A188.51,188.51,0,0,0,42.87,306a190,190,0,0,0,83.37,68.65,188.61,188.61,0,0,0,35.58,11,191.26,191.26,0,0,0,76.36,0A188.51,188.51,0,0,0,306,357.13a190,190,0,0,0,68.65-83.37,188.62,188.62,0,0,0,11-35.58,191.26,191.26,0,0,0,0-76.36A188.52,188.52,0,0,0,357.13,94,190,190,0,0,0,273.76,25.4a188.61,188.61,0,0,0-35.58-11A190.85,190.85,0,0,0,200,10.5Z" fill="#CACAC2"/>
    <path d="M114,272.71q0-2,3.21-10l17.13-42.45,5.15-12.77-5.12-12.74-5.14,12.79-21.45,53.32Q97.91,287.22,77,287.7v9.54h60.7V287.7Q114,287.7,114,272.71Z" fill="#CACAC2"/>
    <path d="M262.3,102.76v9.54c15.86,0,23.74,5,23.74,15,0,1.36-1.07,4.67-3.21,10L265.7,179.77l-5.15,12.77,5.12,12.74,5.14-12.79,21.45-53.32c6.52-17.62,16.83-26.57,30.74-26.87v-9.54Z" fill="#CACAC2"/>
    <path d="M163.38,122.52,192.07,50h11.77q10.41,0,13.91,9.05l11.38,29.79,69.16,172q6.71,16.64,16.83,22.68,7,4.19,22.37,4.19v9.54H248.79q-15.86,0-28.5-34.56L168.53,135.37ZM208.9,62.46a4.46,4.46,0,0,0-1.61-2.24,6.5,6.5,0,0,0-3.45-.68h-5.25L172.23,126l-.19.39a9.08,9.08,0,0,1,5.35,5.35l51.75,127.51q7.59,20.64,15.27,26.57a8.32,8.32,0,0,0,4.38,1.85h55.93q-9.14-8-15.27-23.26L220.28,92.34Zm29.18,193.32L186.24,128.16a21,21,0,0,0-2.72-4.67L203.07,74l8.37,21.8,69.16,172.1a88.05,88.05,0,0,0,4.86,10.22H250.05Q244.51,273.59,238.09,255.77Z" fill="#CACAC2"/>
    <path d="M236.62,277.48,207.93,350H196.15c-6.91,0-11.58-3-13.91-9.05l-11.38-29.79-69.16-172c-4.47-11.1-10.12-18.69-16.83-22.68-4.67-2.82-12.16-4.19-22.37-4.19v-9.54h88.71c10.6,0,20,11.49,28.5,34.56l51.75,127.32ZM191.1,337.54a5.07,5.07,0,0,0,1.56,2.24,6.54,6.54,0,0,0,3.5.68h5.25L227.77,274l.19-.39a9.08,9.08,0,0,1-5.35-5.35L170.86,140.72c-5.06-13.72-10.12-22.58-15.27-26.57a8.54,8.54,0,0,0-4.38-1.85H95.28c6.13,5.35,11.19,13,15.27,23.26l69.16,172.1ZM119.41,132.06a83,83,0,0,0-4.86-10.22h27.24a30.68,30.68,0,0,1-1.56,6.72,18.27,18.27,0,0,0-8.27,5.16A19.51,19.51,0,0,0,126,147.34l-.39.19Zm15.27,14.11a41.12,41.12,0,0,0,9.14-13.53,22,22,0,0,1,2.53-.1,15.58,15.58,0,1,1,0,31.15,15,15,0,0,1-11.09-4.48,15.35,15.35,0,0,1-4.47-9.54A43.58,43.58,0,0,0,134.68,146.17Zm56.52,70.08a52.62,52.62,0,0,0-13-2.73A23.94,23.94,0,0,0,170.77,197a24.68,24.68,0,0,0-12.06-6.81l.1-.19a17.2,17.2,0,0,0-5.25-12.65,18.33,18.33,0,0,0-17.8-4.58l-4.28-10.61.49.39a20.42,20.42,0,0,0,28.79,0,18.37,18.37,0,0,0,5.16-8.47ZM135.26,137a14.24,14.24,0,0,1,1.85-1.56,38.82,38.82,0,0,1-5.35,6.91A17,17,0,0,1,135.26,137Zm5.54,39.71a13.13,13.13,0,0,1,13.13,12.85h-1a24.74,24.74,0,0,0-9.73,1.85l-5.74-14.31A12.32,12.32,0,0,1,140.81,176.74ZM153,194.26l.29.1a13.37,13.37,0,0,1-3.11,5,11.38,11.38,0,0,1-2.82,2.14l-2.24-5.65A19.31,19.31,0,0,1,153,194.26Zm-6.61-66.58a2.69,2.69,0,0,0-.88.1,37.79,37.79,0,0,0,1.07-5.94h3.4a27.62,27.62,0,0,1,5.93,8.18A19.48,19.48,0,0,0,146.35,127.68Zm7.1,75a18.66,18.66,0,0,0,4.67-7.69,20.47,20.47,0,0,1,15.27,18.49,54.07,54.07,0,0,0-19.75,3.89l-4.57-11.39A20,20,0,0,0,153.45,202.63ZM173.2,218.2a19.81,19.81,0,0,1-5.74,11.1,19.6,19.6,0,0,1-7.1,4.67l-4.86-12.17A47.14,47.14,0,0,1,173.2,218.2Zm-6.13,32.51-5-12.36a24.94,24.94,0,0,0,8.66-5.74A24.08,24.08,0,0,0,178,218.3a47.73,47.73,0,0,1,15.66,4.09l20.14,49.45a22.53,22.53,0,0,0,2.72,4.67L207,300.26a51.3,51.3,0,0,1-9.24,7,48.73,48.73,0,0,1-6.81,3.31l-2-5.35a6.61,6.61,0,0,0,1.17-1.17,18.78,18.78,0,0,0,5.64-13.43,19.28,19.28,0,0,0-19-18.88,6,6,0,0,0-1.26.1l-2.43-6.33a13.23,13.23,0,0,0,15.86-2,12.36,12.36,0,0,0,3.89-9.25A13.13,13.13,0,0,0,189,245a13.15,13.15,0,0,0-18.48,0A12.93,12.93,0,0,0,167.07,250.71Zm6.71-2.43a8.45,8.45,0,0,1,11.87,0,8.72,8.72,0,0,1,0,11.88,8.45,8.45,0,0,1-11.87,0,8.72,8.72,0,0,1,0-11.88Zm13.33,52.17-9.63-23.85a13.3,13.3,0,0,1,9.34,4.09,14.36,14.36,0,0,1,.29,19.76Zm9.82,25.5-4.18-11a44.11,44.11,0,0,0,7.49-3.6c1.17-.68,2.24-1.36,3.31-2Z" fill="#CACAC2"/>
</svg>